<?xml version="1.0" encoding="UTF-8" standalone="no"?>
<!DOCTYPE svg PUBLIC "-//W3C//DTD SVG 1.1//EN" "http://www.w3.org/Graphics/SVG/1.1/DTD/svg11.dtd">
<!-- Created with Vectornator (http://vectornator.io/) -->
<svg height="100%" stroke-miterlimit="10" style="fill-rule:nonzero;clip-rule:evenodd;stroke-linecap:round;stroke-linejoin:round;" version="1.1" viewBox="0 0 4700 1000" width="100%" xml:space="preserve" xmlns="http://www.w3.org/2000/svg" xmlns:vectornator="http://vectornator.io" xmlns:xlink="http://www.w3.org/1999/xlink">
<defs/>
<g id="Layer-1" vectornator:layerName="Layer 1">
<g opacity="1">
<g opacity="1">
<path d="M548.868 185.461L653.325 244.377L651.547 355.849L862.362 471.835L862.267 698.904L757.089 756.443L651.339 699.535L442.663 813.431L232.819 699.311L233.327 585.025L337.758 527.74L337.487 301.255L548.868 185.461Z" fill="none" opacity="1" stroke="#004d80" stroke-linecap="butt" stroke-linejoin="miter" stroke-width="22"/>
</g>
<g opacity="1">
<path d="M655.303 244.087L446.586 357.176L343.519 302.708" fill="none" opacity="1" stroke="#004d80" stroke-linecap="butt" stroke-linejoin="miter" stroke-width="22"/>
</g>
<g opacity="1">
<path d="M862.184 472.131L758.189 527.467L758.841 760.016" fill="none" opacity="1" stroke="#004d80" stroke-linecap="butt" stroke-linejoin="miter" stroke-width="22"/>
</g>
<g opacity="1">
<path d="M651.197 359.552L443.976 473.555" fill="none" opacity="1" stroke="#004d80" stroke-linecap="butt" stroke-linejoin="miter" stroke-width="22"/>
</g>
<g opacity="1">
<path d="M761.921 530.145L552.109 416.143" fill="none" opacity="1" stroke="#004d80" stroke-linecap="butt" stroke-linejoin="miter" stroke-width="22"/>
</g>
<g opacity="1">
<path d="M653.797 474.421L652.618 698.644" fill="none" opacity="1" stroke="#004d80" stroke-linecap="butt" stroke-linejoin="miter" stroke-width="22"/>
</g>
<g opacity="1">
<path d="M441.991 581.888L441.991 356.745" fill="none" opacity="1" stroke="#004d80" stroke-linecap="butt" stroke-linejoin="miter" stroke-width="22"/>
</g>
<g opacity="1">
<path d="M441.991 811.231L441.991 698.66" fill="none" opacity="1" stroke="#004d80" stroke-linecap="butt" stroke-linejoin="miter" stroke-width="22"/>
</g>
<g opacity="1">
<path d="M440.248 700.705L651.164 584.677" fill="none" opacity="1" stroke="#004d80" stroke-linecap="butt" stroke-linejoin="miter" stroke-width="22"/>
</g>
<g opacity="1">
<path d="M231.805 584.174L440.261 698.199" fill="none" opacity="1" stroke="#004d80" stroke-linecap="butt" stroke-linejoin="miter" stroke-width="22"/>
</g>
<g opacity="1">
<path d="M322.834 524.809L545.52 645.699" fill="none" opacity="1" stroke="#004d80" stroke-linecap="butt" stroke-linejoin="miter" stroke-width="22"/>
</g>
<g opacity="1">
<path d="M551.777 529.142L441.401 469.731" fill="none" opacity="1" stroke="#004d80" stroke-linecap="butt" stroke-linejoin="miter" stroke-width="22"/>
</g>
<g opacity="1">
<path d="M660.66 472.19L549.135 526.683" fill="none" opacity="1" stroke="#004d80" stroke-linecap="butt" stroke-linejoin="miter" stroke-width="22"/>
</g>
<g opacity="1">
<path d="M547.587 642.691L547.587 525.437" fill="none" opacity="1" stroke="#004d80" stroke-linecap="butt" stroke-linejoin="miter" stroke-width="22"/>
</g>
</g>
<g opacity="1">
<path d="M1446.65 590.806C1446.65 661.433 1397.48 714.686 1295.36 714.686C1222.74 714.686 1172.06 689.217 1129.7 645.606L1178.11 576.141L1185.68 584.251C1203.07 602.771 1240.9 633.649 1299.52 633.649C1338.86 633.649 1356.25 616.667 1356.25 600.07C1356.25 579.618 1322.97 571.509 1284.39 562.252C1224.26 547.587 1150.88 527.905 1147.47 439.912L1147.47 436.441L1147.47 432.967L1147.47 429.493C1149.37 366.588 1203.45 315.259 1290.82 315.259C1350.96 315.259 1403.16 333.783 1445.14 375.079L1394.45 443.001L1387.27 436.053C1360.42 410.969 1322.59 396.304 1283.26 396.304C1255.27 396.304 1238.63 407.11 1238.63 425.635C1238.63 442.612 1270.02 450.334 1306.33 459.209C1367.98 474.259 1443.24 494.711 1446.65 583.473L1446.65 586.951C1446.65 586.951 1446.65 590.806 1446.65 590.806Z" fill="#004d80" fill-rule="nonzero" opacity="1" stroke="none"/>
<path d="M1844.3 321.634L1844.3 403.063L1738.78 403.063L1738.78 707.557L1648.76 707.557L1648.76 403.063L1542.48 403.063L1542.48 321.634L1844.3 321.634Z" fill="#004d80" fill-rule="nonzero" opacity="1" stroke="none"/>
<path d="M2300.19 514.594C2300.19 624.966 2212.82 714.505 2104.65 714.505C1996.48 714.505 1908.73 624.966 1908.73 514.594C1908.73 404.218 1996.48 314.686 2104.65 314.686C2212.82 314.686 2300.19 403.833 2300.19 514.594ZM2210.17 514.205C2210.17 454.774 2162.9 406.534 2104.65 406.534C2046.41 406.534 1999.13 454.774 1999.13 514.205C1999.13 573.64 2046.41 621.88 2104.65 621.88C2162.9 621.88 2210.17 573.64 2210.17 514.205Z" fill="#004d80" fill-rule="nonzero" opacity="1" stroke="none"/>
<path d="M2762.25 612.616C2728.97 673.21 2665.05 714.505 2591.68 714.505C2483.5 714.505 2395.76 624.966 2395.76 514.594C2395.76 404.218 2483.5 314.686 2591.68 314.686C2665.05 314.686 2728.59 355.593 2762.25 416.182L2680.94 456.705C2662.4 426.604 2629.12 406.534 2591.68 406.534C2533.43 406.534 2486.15 454.774 2486.15 514.205C2486.15 573.64 2533.43 621.88 2591.68 621.88C2629.12 621.88 2662.4 601.809 2680.94 571.709L2762.25 612.616Z" fill="#004d80" fill-rule="nonzero" opacity="1" stroke="none"/>
<path d="M3182.16 707.548L3071.72 707.548L2968.08 567.845L2948.04 592.159L2948.04 707.548L2858.4 707.548L2858.4 321.629L2948.04 321.629L2948.04 467.507L3061.12 321.629L3171.95 321.629L3021.79 502.624L3182.16 707.548Z" fill="#004d80" fill-rule="nonzero" opacity="1" stroke="none"/>
<path d="M3581.92 445.893C3581.92 505.324 3546.37 557.427 3481.31 568.23L3403.4 488.732L3444.24 488.732C3472.23 488.732 3490.77 471.365 3490.77 445.893C3490.77 420.036 3472.61 403.058 3444.24 403.058L3367.47 403.058L3367.47 707.548L3277.83 707.548L3277.83 321.629L3454.84 321.629C3536.91 321.629 3581.92 378.359 3581.92 445.893Z" fill="#004d80" fill-rule="nonzero" opacity="1" stroke="none"/>
<path d="M3678.43 321.629L3768.07 321.629L3768.07 707.548L3678.43 707.548L3678.43 321.629Z" fill="#004d80" fill-rule="nonzero" opacity="1" stroke="none"/>
<path d="M4104.63 626.119L4104.63 707.548L3864.08 707.548L3864.08 321.629L3953.72 321.629L3953.72 626.119L4104.63 626.119Z" fill="#004d80" fill-rule="nonzero" opacity="1" stroke="none"/>
<path d="M4200.42 707.548L4468.2 707.548L4468.2 626.119L4200.42 626.119L4200.42 707.548ZM4200.42 557.038L4468.2 557.038L4468.2 475.609L4200.42 475.609L4200.42 557.038ZM4200.42 321.629L4200.42 403.058L4468.2 403.058L4468.2 321.629L4200.42 321.629Z" fill="#004d80" fill-rule="nonzero" opacity="1" stroke="none"/>
</g>
</g>
</svg>
