<?xml version="1.0" encoding="UTF-8" standalone="no"?>
<!DOCTYPE svg PUBLIC "-//W3C//DTD SVG 1.1//EN" "http://www.w3.org/Graphics/SVG/1.1/DTD/svg11.dtd">
<!-- Created with Vectornator (http://vectornator.io/) -->
<svg height="100%" stroke-miterlimit="10" style="fill-rule:nonzero;clip-rule:evenodd;stroke-linecap:round;stroke-linejoin:round;" version="1.1" viewBox="0 0 3500 800" width="100%" xml:space="preserve" xmlns="http://www.w3.org/2000/svg" xmlns:vectornator="http://vectornator.io" xmlns:xlink="http://www.w3.org/1999/xlink">
<defs/>
<g id="Layer-1" vectornator:layerName="Layer 1">
<g opacity="1">
<path d="M397.708 474.564C397.708 545.191 348.533 598.443 246.414 598.443C173.794 598.443 123.112 572.975 80.7506 529.363L129.167 459.898L136.731 468.008C154.128 486.529 191.953 517.406 250.576 517.406C289.91 517.406 307.307 500.425 307.307 483.828C307.307 463.376 274.029 455.266 235.449 446.01C175.31 431.344 101.933 411.662 98.5284 323.669L98.5284 320.199L98.5284 316.725L98.5284 313.251C100.421 250.345 154.505 199.016 241.874 199.016C302.013 199.016 354.211 217.54 396.192 258.836L345.509 326.758L338.323 319.81C311.469 294.727 273.644 280.061 234.31 280.061C206.326 280.061 189.683 290.868 189.683 309.392C189.683 326.37 221.076 334.091 257.386 342.967C319.033 358.017 394.299 378.469 397.708 467.231L397.708 470.709C397.708 470.709 397.708 474.564 397.708 474.564Z" fill="#ffffff" fill-rule="nonzero" opacity="1" stroke="none"/>
<path d="M795.355 205.391L795.355 286.821L689.835 286.821L689.835 591.315L599.819 591.315L599.819 286.821L493.533 286.821L493.533 205.391L795.355 205.391Z" fill="#ffffff" fill-rule="nonzero" opacity="1" stroke="none"/>
<path d="M1251.24 398.351C1251.24 508.723 1163.87 598.263 1055.71 598.263C947.533 598.263 859.787 508.723 859.787 398.351C859.787 287.975 947.533 198.443 1055.71 198.443C1163.87 198.443 1251.24 287.59 1251.24 398.351ZM1161.23 397.963C1161.23 338.531 1113.95 290.291 1055.71 290.291C997.462 290.291 950.18 338.531 950.18 397.963C950.18 457.398 997.462 505.638 1055.71 505.638C1113.95 505.638 1161.23 457.398 1161.23 397.963Z" fill="#ffffff" fill-rule="nonzero" opacity="1" stroke="none"/>
<path d="M1713.31 496.374C1680.02 556.967 1616.1 598.263 1542.73 598.263C1434.56 598.263 1346.81 508.723 1346.81 398.351C1346.81 287.975 1434.56 198.443 1542.73 198.443C1616.1 198.443 1679.64 239.351 1713.31 299.94L1631.99 340.462C1613.46 310.362 1580.17 290.291 1542.73 290.291C1484.49 290.291 1437.2 338.531 1437.2 397.963C1437.2 457.398 1484.49 505.638 1542.73 505.638C1580.17 505.638 1613.46 485.567 1631.99 455.467L1713.31 496.374Z" fill="#ffffff" fill-rule="nonzero" opacity="1" stroke="none"/>
<path d="M2133.21 591.306L2022.77 591.306L1919.14 451.603L1899.09 475.917L1899.09 591.306L1809.46 591.306L1809.46 205.386L1899.09 205.386L1899.09 351.264L2012.18 205.386L2123 205.386L1972.85 386.381L2133.21 591.306Z" fill="#ffffff" fill-rule="nonzero" opacity="1" stroke="none"/>
<path d="M2532.97 329.651C2532.97 389.082 2497.42 441.185 2432.37 451.987L2354.46 372.489L2395.3 372.489C2423.29 372.489 2441.82 355.123 2441.82 329.651C2441.82 303.794 2423.67 286.816 2395.3 286.816L2318.52 286.816L2318.52 591.306L2228.88 591.306L2228.88 205.386L2405.89 205.386C2487.97 205.386 2532.97 262.117 2532.97 329.651Z" fill="#ffffff" fill-rule="nonzero" opacity="1" stroke="none"/>
<path d="M2629.48 205.386L2719.12 205.386L2719.12 591.306L2629.48 591.306L2629.48 205.386Z" fill="#ffffff" fill-rule="nonzero" opacity="1" stroke="none"/>
<path d="M3055.69 509.876L3055.69 591.306L2815.14 591.306L2815.14 205.386L2904.78 205.386L2904.78 509.876L3055.69 509.876Z" fill="#ffffff" fill-rule="nonzero" opacity="1" stroke="none"/>
<path d="M3151.47 591.306L3419.25 591.306L3419.25 509.876L3151.47 509.876L3151.47 591.306ZM3151.47 440.796L3419.25 440.796L3419.25 359.366L3151.47 359.366L3151.47 440.796ZM3151.47 205.386L3151.47 286.816L3419.25 286.816L3419.25 205.386L3151.47 205.386Z" fill="#ffffff" fill-rule="nonzero" opacity="1" stroke="none"/>
</g>
</g>
</svg>
