<!--?xml version="1.0" encoding="UTF-8" standalone="no"?-->

<!-- Created with Vectornator (http://vectornator.io/) -->
<svg height="100%" stroke-miterlimit="10" style="fill-rule: nonzero; clip-rule: evenodd; stroke-linecap: round; stroke-linejoin: round;" version="1.1" viewBox="0 0 1000 1000" width="100%" xml:space="preserve" xmlns="http://www.w3.org/2000/svg" xmlns:vectornator="http://vectornator.io" xmlns:xlink="http://www.w3.org/1999/xlink">
<defs></defs>
<g id="Layer-1" vectornator:layername="Layer 1">
<g opacity="1">
<g opacity="1">
<path d="M502.186 163.709L593.585 215.26L592.03 312.798L776.492 414.285L776.409 612.968L684.378 663.315L591.848 613.521L409.257 713.179L225.645 613.324L226.089 513.325L317.466 463.201L317.229 265.028L502.186 163.709Z" fill="none" opacity="1" stroke="#004d80" stroke-linecap="butt" stroke-linejoin="miter" stroke-width="22" class="AotApyJk_0"></path>
</g>
<g opacity="1">
<path d="M595.316 215.006L412.69 313.959L322.507 266.299" fill="none" opacity="1" stroke="#004d80" stroke-linecap="butt" stroke-linejoin="miter" stroke-width="22" class="AotApyJk_1"></path>
</g>
<g opacity="1">
<path d="M776.336 414.544L685.341 462.962L685.912 666.441" fill="none" opacity="1" stroke="#004d80" stroke-linecap="butt" stroke-linejoin="miter" stroke-width="22" class="AotApyJk_2"></path>
</g>
<g opacity="1">
<path d="M591.723 316.038L410.407 415.79" fill="none" opacity="1" stroke="#004d80" stroke-linecap="butt" stroke-linejoin="miter" stroke-width="22" class="AotApyJk_3"></path>
</g>
<g opacity="1">
<path d="M688.606 465.306L505.022 365.555" fill="none" opacity="1" stroke="#004d80" stroke-linecap="butt" stroke-linejoin="miter" stroke-width="22" class="AotApyJk_4"></path>
</g>
<g opacity="1">
<path d="M593.999 416.547L592.967 612.741" fill="none" opacity="1" stroke="#004d80" stroke-linecap="butt" stroke-linejoin="miter" stroke-width="22" class="AotApyJk_5"></path>
</g>
<g opacity="1">
<path d="M408.669 510.58L408.669 313.582" fill="none" opacity="1" stroke="#004d80" stroke-linecap="butt" stroke-linejoin="miter" stroke-width="22" class="AotApyJk_6"></path>
</g>
<g opacity="1">
<path d="M408.669 711.254L408.669 612.755" fill="none" opacity="1" stroke="#004d80" stroke-linecap="butt" stroke-linejoin="miter" stroke-width="22" class="AotApyJk_7"></path>
</g>
<g opacity="1">
<path d="M407.144 614.544L591.695 513.02" fill="none" opacity="1" stroke="#004d80" stroke-linecap="butt" stroke-linejoin="miter" stroke-width="22" class="AotApyJk_8"></path>
</g>
<g opacity="1">
<path d="M224.758 512.58L407.156 612.351" fill="none" opacity="1" stroke="#004d80" stroke-linecap="butt" stroke-linejoin="miter" stroke-width="22" class="AotApyJk_9"></path>
</g>
<g opacity="1">
<path d="M304.408 460.637L499.257 566.415" fill="none" opacity="1" stroke="#004d80" stroke-linecap="butt" stroke-linejoin="miter" stroke-width="22" class="AotApyJk_10"></path>
</g>
<g opacity="1">
<path d="M504.732 464.428L408.153 412.443" fill="none" opacity="1" stroke="#004d80" stroke-linecap="butt" stroke-linejoin="miter" stroke-width="22" class="AotApyJk_11"></path>
</g>
<g opacity="1">
<path d="M600.004 414.595L502.42 462.277" fill="none" opacity="1" stroke="#004d80" stroke-linecap="butt" stroke-linejoin="miter" stroke-width="22" class="AotApyJk_12"></path>
</g>
<g opacity="1">
<path d="M501.065 563.782L501.065 461.186" fill="none" opacity="1" stroke="#004d80" stroke-linecap="butt" stroke-linejoin="miter" stroke-width="22" class="AotApyJk_13"></path>
</g>
</g>
<g opacity="1">
<path d="M217.083 810.317C217.083 825.125 206.772 836.291 185.36 836.291C170.134 836.291 159.507 830.951 150.625 821.807L160.777 807.242L162.363 808.942C166.01 812.825 173.941 819.3 186.233 819.3C194.48 819.3 198.128 815.739 198.128 812.259C198.128 807.971 191.151 806.27 183.061 804.33C170.452 801.255 155.066 797.128 154.353 778.678L154.353 777.95L154.353 777.222L154.353 776.493C154.749 763.304 166.089 752.541 184.409 752.541C197.018 752.541 207.963 756.425 216.765 765.084L206.138 779.326L204.631 777.869C199.001 772.609 191.07 769.534 182.823 769.534C176.955 769.534 173.465 771.8 173.465 775.684C173.465 779.244 180.048 780.863 187.661 782.724C200.587 785.88 216.368 790.168 217.083 808.779L217.083 809.508C217.083 809.508 217.083 810.317 217.083 810.317Z" fill="#004d80" fill-rule="nonzero" opacity="1" stroke="none" class="AotApyJk_14"></path>
<path d="M300.46 753.878L300.46 770.952L278.335 770.952L278.335 834.797L259.461 834.797L259.461 770.952L237.175 770.952L237.175 753.878L300.46 753.878Z" fill="#004d80" fill-rule="nonzero" opacity="1" stroke="none" class="AotApyJk_15"></path>
<path d="M396.048 794.337C396.048 817.479 377.729 836.253 355.049 836.253C332.368 836.253 313.969 817.479 313.969 794.337C313.969 771.194 332.368 752.421 355.049 752.421C377.729 752.421 396.048 771.113 396.048 794.337ZM377.174 794.255C377.174 781.794 367.262 771.679 355.049 771.679C342.836 771.679 332.923 781.794 332.923 794.255C332.923 806.717 342.836 816.832 355.049 816.832C367.262 816.832 377.174 806.717 377.174 794.255Z" fill="#004d80" fill-rule="nonzero" opacity="1" stroke="none" class="AotApyJk_16"></path>
<path d="M492.931 814.89C485.952 827.595 472.551 836.253 457.166 836.253C434.484 836.253 416.086 817.479 416.086 794.337C416.086 771.194 434.484 752.421 457.166 752.421C472.551 752.421 485.873 760.998 492.931 773.702L475.882 782.199C471.996 775.888 465.016 771.679 457.166 771.679C444.953 771.679 435.039 781.794 435.039 794.255C435.039 806.717 444.953 816.832 457.166 816.832C465.016 816.832 471.996 812.624 475.882 806.313L492.931 814.89Z" fill="#004d80" fill-rule="nonzero" opacity="1" stroke="none" class="AotApyJk_17"></path>
<path d="M580.975 834.795L557.819 834.795L536.089 805.502L531.886 810.6L531.886 834.795L513.091 834.795L513.091 753.877L531.886 753.877L531.886 784.464L555.597 753.877L578.834 753.877L547.35 791.827L580.975 834.795Z" fill="#004d80" fill-rule="nonzero" opacity="1" stroke="none" class="AotApyJk_18"></path>
<path d="M664.795 779.932C664.795 792.393 657.341 803.318 643.701 805.583L627.364 788.914L635.928 788.914C641.797 788.914 645.683 785.273 645.683 779.932C645.683 774.51 641.876 770.951 635.928 770.951L619.83 770.951L619.83 834.795L601.035 834.795L601.035 753.877L638.149 753.877C655.358 753.877 664.795 765.772 664.795 779.932Z" fill="#004d80" fill-rule="nonzero" opacity="1" stroke="none" class="AotApyJk_19"></path>
<path d="M685.031 753.877L703.826 753.877L703.826 834.795L685.031 834.795L685.031 753.877Z" fill="#004d80" fill-rule="nonzero" opacity="1" stroke="none" class="AotApyJk_20"></path>
<path d="M774.395 817.721L774.395 834.795L723.958 834.795L723.958 753.877L742.753 753.877L742.753 817.721L774.395 817.721Z" fill="#004d80" fill-rule="nonzero" opacity="1" stroke="none" class="AotApyJk_21"></path>
<path d="M794.478 834.795L850.625 834.795L850.625 817.721L794.478 817.721L794.478 834.795ZM794.478 803.236L850.625 803.236L850.625 786.163L794.478 786.163L794.478 803.236ZM794.478 753.877L794.478 770.951L850.625 770.951L850.625 753.877L794.478 753.877Z" fill="#004d80" fill-rule="nonzero" opacity="1" stroke="none" class="AotApyJk_22"></path>
</g>
</g>
<style data-made-with="vivus-instant">.AotApyJk_0{stroke-dasharray:1852 1854;stroke-dashoffset:1853;animation:AotApyJk_draw_0 2300ms linear 0ms infinite,AotApyJk_fade 2300ms linear 0ms infinite;}.AotApyJk_1{stroke-dasharray:310 312;stroke-dashoffset:311;animation:AotApyJk_draw_1 2300ms linear 0ms infinite,AotApyJk_fade 2300ms linear 0ms infinite;}.AotApyJk_2{stroke-dasharray:307 309;stroke-dashoffset:308;animation:AotApyJk_draw_2 2300ms linear 0ms infinite,AotApyJk_fade 2300ms linear 0ms infinite;}.AotApyJk_3{stroke-dasharray:207 209;stroke-dashoffset:208;animation:AotApyJk_draw_3 2300ms linear 0ms infinite,AotApyJk_fade 2300ms linear 0ms infinite;}.AotApyJk_4{stroke-dasharray:209 211;stroke-dashoffset:210;animation:AotApyJk_draw_4 2300ms linear 0ms infinite,AotApyJk_fade 2300ms linear 0ms infinite;}.AotApyJk_5{stroke-dasharray:197 199;stroke-dashoffset:198;animation:AotApyJk_draw_5 2300ms linear 0ms infinite,AotApyJk_fade 2300ms linear 0ms infinite;}.AotApyJk_6{stroke-dasharray:197 199;stroke-dashoffset:198;animation:AotApyJk_draw_6 2300ms linear 0ms infinite,AotApyJk_fade 2300ms linear 0ms infinite;}.AotApyJk_7{stroke-dasharray:99 101;stroke-dashoffset:100;animation:AotApyJk_draw_7 2300ms linear 0ms infinite,AotApyJk_fade 2300ms linear 0ms infinite;}.AotApyJk_8{stroke-dasharray:211 213;stroke-dashoffset:212;animation:AotApyJk_draw_8 2300ms linear 0ms infinite,AotApyJk_fade 2300ms linear 0ms infinite;}.AotApyJk_9{stroke-dasharray:208 210;stroke-dashoffset:209;animation:AotApyJk_draw_9 2300ms linear 0ms infinite,AotApyJk_fade 2300ms linear 0ms infinite;}.AotApyJk_10{stroke-dasharray:222 224;stroke-dashoffset:223;animation:AotApyJk_draw_10 2300ms linear 0ms infinite,AotApyJk_fade 2300ms linear 0ms infinite;}.AotApyJk_11{stroke-dasharray:110 112;stroke-dashoffset:111;animation:AotApyJk_draw_11 2300ms linear 0ms infinite,AotApyJk_fade 2300ms linear 0ms infinite;}.AotApyJk_12{stroke-dasharray:109 111;stroke-dashoffset:110;animation:AotApyJk_draw_12 2300ms linear 0ms infinite,AotApyJk_fade 2300ms linear 0ms infinite;}.AotApyJk_13{stroke-dasharray:103 105;stroke-dashoffset:104;animation:AotApyJk_draw_13 2300ms linear 0ms infinite,AotApyJk_fade 2300ms linear 0ms infinite;}.AotApyJk_14{stroke-dasharray:406 408;stroke-dashoffset:407;animation:AotApyJk_draw_14 2300ms linear 0ms infinite,AotApyJk_fade 2300ms linear 0ms infinite;}.AotApyJk_15{stroke-dasharray:289 291;stroke-dashoffset:290;animation:AotApyJk_draw_15 2300ms linear 0ms infinite,AotApyJk_fade 2300ms linear 0ms infinite;}.AotApyJk_16{stroke-dasharray:402 404;stroke-dashoffset:403;animation:AotApyJk_draw_16 2300ms linear 0ms infinite,AotApyJk_fade 2300ms linear 0ms infinite;}.AotApyJk_17{stroke-dasharray:371 373;stroke-dashoffset:372;animation:AotApyJk_draw_17 2300ms linear 0ms infinite,AotApyJk_fade 2300ms linear 0ms infinite;}.AotApyJk_18{stroke-dasharray:406 408;stroke-dashoffset:407;animation:AotApyJk_draw_18 2300ms linear 0ms infinite,AotApyJk_fade 2300ms linear 0ms infinite;}.AotApyJk_19{stroke-dasharray:357 359;stroke-dashoffset:358;animation:AotApyJk_draw_19 2300ms linear 0ms infinite,AotApyJk_fade 2300ms linear 0ms infinite;}.AotApyJk_20{stroke-dasharray:200 202;stroke-dashoffset:201;animation:AotApyJk_draw_20 2300ms linear 0ms infinite,AotApyJk_fade 2300ms linear 0ms infinite;}.AotApyJk_21{stroke-dasharray:263 265;stroke-dashoffset:264;animation:AotApyJk_draw_21 2300ms linear 0ms infinite,AotApyJk_fade 2300ms linear 0ms infinite;}.AotApyJk_22{stroke-dasharray:440 442;stroke-dashoffset:441;animation:AotApyJk_draw_22 2300ms linear 0ms infinite,AotApyJk_fade 2300ms linear 0ms infinite;}@keyframes AotApyJk_draw{100%{stroke-dashoffset:0;}}@keyframes AotApyJk_fade{0%{stroke-opacity:1;}95.65217391304348%{stroke-opacity:1;}100%{stroke-opacity:0;}}@keyframes AotApyJk_draw_0{4.3478260869565215%{stroke-dashoffset: 1853}62.318840579710155%{ stroke-dashoffset: 0;}100%{ stroke-dashoffset: 0;}}@keyframes AotApyJk_draw_1{5.665349143610014%{stroke-dashoffset: 311}63.63636363636363%{ stroke-dashoffset: 0;}100%{ stroke-dashoffset: 0;}}@keyframes AotApyJk_draw_2{6.982872200263504%{stroke-dashoffset: 308}64.95388669301713%{ stroke-dashoffset: 0;}100%{ stroke-dashoffset: 0;}}@keyframes AotApyJk_draw_3{8.300395256916996%{stroke-dashoffset: 208}66.27140974967062%{ stroke-dashoffset: 0;}100%{ stroke-dashoffset: 0;}}@keyframes AotApyJk_draw_4{9.617918313570486%{stroke-dashoffset: 210}67.58893280632412%{ stroke-dashoffset: 0;}100%{ stroke-dashoffset: 0;}}@keyframes AotApyJk_draw_5{10.935441370223979%{stroke-dashoffset: 198}68.90645586297761%{ stroke-dashoffset: 0;}100%{ stroke-dashoffset: 0;}}@keyframes AotApyJk_draw_6{12.25296442687747%{stroke-dashoffset: 198}70.22397891963111%{ stroke-dashoffset: 0;}100%{ stroke-dashoffset: 0;}}@keyframes AotApyJk_draw_7{13.570487483530963%{stroke-dashoffset: 100}71.54150197628458%{ stroke-dashoffset: 0;}100%{ stroke-dashoffset: 0;}}@keyframes AotApyJk_draw_8{14.888010540184451%{stroke-dashoffset: 212}72.85902503293809%{ stroke-dashoffset: 0;}100%{ stroke-dashoffset: 0;}}@keyframes AotApyJk_draw_9{16.20553359683794%{stroke-dashoffset: 209}74.17654808959158%{ stroke-dashoffset: 0;}100%{ stroke-dashoffset: 0;}}@keyframes AotApyJk_draw_10{17.523056653491434%{stroke-dashoffset: 223}75.49407114624506%{ stroke-dashoffset: 0;}100%{ stroke-dashoffset: 0;}}@keyframes AotApyJk_draw_11{18.84057971014493%{stroke-dashoffset: 111}76.81159420289856%{ stroke-dashoffset: 0;}100%{ stroke-dashoffset: 0;}}@keyframes AotApyJk_draw_12{20.158102766798418%{stroke-dashoffset: 110}78.12911725955203%{ stroke-dashoffset: 0;}100%{ stroke-dashoffset: 0;}}@keyframes AotApyJk_draw_13{21.47562582345191%{stroke-dashoffset: 104}79.44664031620555%{ stroke-dashoffset: 0;}100%{ stroke-dashoffset: 0;}}@keyframes AotApyJk_draw_14{22.793148880105402%{stroke-dashoffset: 407}80.76416337285903%{ stroke-dashoffset: 0;}100%{ stroke-dashoffset: 0;}}@keyframes AotApyJk_draw_15{24.110671936758894%{stroke-dashoffset: 290}82.08168642951253%{ stroke-dashoffset: 0;}100%{ stroke-dashoffset: 0;}}@keyframes AotApyJk_draw_16{25.42819499341238%{stroke-dashoffset: 403}83.39920948616601%{ stroke-dashoffset: 0;}100%{ stroke-dashoffset: 0;}}@keyframes AotApyJk_draw_17{26.745718050065875%{stroke-dashoffset: 372}84.7167325428195%{ stroke-dashoffset: 0;}100%{ stroke-dashoffset: 0;}}@keyframes AotApyJk_draw_18{28.063241106719367%{stroke-dashoffset: 407}86.034255599473%{ stroke-dashoffset: 0;}100%{ stroke-dashoffset: 0;}}@keyframes AotApyJk_draw_19{29.38076416337286%{stroke-dashoffset: 358}87.35177865612648%{ stroke-dashoffset: 0;}100%{ stroke-dashoffset: 0;}}@keyframes AotApyJk_draw_20{30.698287220026348%{stroke-dashoffset: 201}88.66930171277998%{ stroke-dashoffset: 0;}100%{ stroke-dashoffset: 0;}}@keyframes AotApyJk_draw_21{32.015810276679844%{stroke-dashoffset: 264}89.98682476943348%{ stroke-dashoffset: 0;}100%{ stroke-dashoffset: 0;}}@keyframes AotApyJk_draw_22{33.33333333333333%{stroke-dashoffset: 441}91.30434782608695%{ stroke-dashoffset: 0;}100%{ stroke-dashoffset: 0;}}</style></svg>
