<?xml version="1.0" encoding="UTF-8" standalone="no"?>
<!DOCTYPE svg PUBLIC "-//W3C//DTD SVG 1.1//EN" "http://www.w3.org/Graphics/SVG/1.1/DTD/svg11.dtd">
<!-- Created with Vectornator (http://vectornator.io/) -->
<svg height="100%" stroke-miterlimit="10" style="fill-rule:nonzero;clip-rule:evenodd;stroke-linecap:round;stroke-linejoin:round;" version="1.1" viewBox="0 0 2600 1000" width="100%" xml:space="preserve" xmlns="http://www.w3.org/2000/svg" xmlns:vectornator="http://vectornator.io" xmlns:xlink="http://www.w3.org/1999/xlink">
<defs/>
<g id="Layer-1" vectornator:layerName="Layer 1">
<g opacity="1">
<g opacity="1">
<path d="M485.956 169.958L590.412 228.873L588.635 340.345L799.449 456.331L799.353 683.397L694.176 740.937L588.426 684.029L379.752 797.924L169.909 683.804L170.417 569.519L274.847 512.235L274.576 285.751L485.956 169.958Z" fill="none" opacity="1" stroke="#ffffff" stroke-linecap="butt" stroke-linejoin="miter" stroke-width="22"/>
</g>
<g opacity="1">
<path d="M592.39 228.583L383.675 341.672L280.609 287.204" fill="none" opacity="1" stroke="#ffffff" stroke-linecap="butt" stroke-linejoin="miter" stroke-width="22"/>
</g>
<g opacity="1">
<path d="M799.271 456.626L695.276 511.962L695.928 744.509" fill="none" opacity="1" stroke="#ffffff" stroke-linecap="butt" stroke-linejoin="miter" stroke-width="22"/>
</g>
<g opacity="1">
<path d="M588.284 344.048L381.065 458.051" fill="none" opacity="1" stroke="#ffffff" stroke-linecap="butt" stroke-linejoin="miter" stroke-width="22"/>
</g>
<g opacity="1">
<path d="M699.008 514.64L489.197 400.639" fill="none" opacity="1" stroke="#ffffff" stroke-linecap="butt" stroke-linejoin="miter" stroke-width="22"/>
</g>
<g opacity="1">
<path d="M590.885 458.916L589.705 683.138" fill="none" opacity="1" stroke="#ffffff" stroke-linecap="butt" stroke-linejoin="miter" stroke-width="22"/>
</g>
<g opacity="1">
<path d="M379.08 566.382L379.08 341.241" fill="none" opacity="1" stroke="#ffffff" stroke-linecap="butt" stroke-linejoin="miter" stroke-width="22"/>
</g>
<g opacity="1">
<path d="M379.08 795.724L379.08 683.154" fill="none" opacity="1" stroke="#ffffff" stroke-linecap="butt" stroke-linejoin="miter" stroke-width="22"/>
</g>
<g opacity="1">
<path d="M377.337 685.198L588.251 569.171" fill="none" opacity="1" stroke="#ffffff" stroke-linecap="butt" stroke-linejoin="miter" stroke-width="22"/>
</g>
<g opacity="1">
<path d="M168.895 568.668L377.35 682.692" fill="none" opacity="1" stroke="#ffffff" stroke-linecap="butt" stroke-linejoin="miter" stroke-width="22"/>
</g>
<g opacity="1">
<path d="M259.923 509.304L482.608 630.193" fill="none" opacity="1" stroke="#ffffff" stroke-linecap="butt" stroke-linejoin="miter" stroke-width="22"/>
</g>
<g opacity="1">
<path d="M488.865 513.637L378.49 454.226" fill="none" opacity="1" stroke="#ffffff" stroke-linecap="butt" stroke-linejoin="miter" stroke-width="22"/>
</g>
<g opacity="1">
<path d="M597.747 456.685L486.224 511.178" fill="none" opacity="1" stroke="#ffffff" stroke-linecap="butt" stroke-linejoin="miter" stroke-width="22"/>
</g>
<g opacity="1">
<path d="M484.675 627.185L484.675 509.932" fill="none" opacity="1" stroke="#ffffff" stroke-linecap="butt" stroke-linejoin="miter" stroke-width="22"/>
</g>
</g>
<g opacity="1">
<path d="M1062.89 534.201C1062.89 565.934 1040.8 589.861 994.916 589.861C962.288 589.861 939.516 578.418 920.483 558.823L942.237 527.612L945.635 531.256C953.452 539.577 970.447 553.45 996.786 553.45C1014.46 553.45 1022.28 545.821 1022.28 538.364C1022.28 529.175 1007.32 525.531 989.99 521.372C962.969 514.783 930.001 505.939 928.471 466.404L928.471 464.845L928.471 463.284L928.471 461.723C929.321 433.459 953.621 410.397 992.876 410.397C1019.9 410.397 1043.35 418.72 1062.21 437.274L1039.44 467.792L1036.21 464.67C1024.15 453.4 1007.15 446.81 989.478 446.81C976.905 446.81 969.427 451.666 969.427 459.989C969.427 467.617 983.532 471.086 999.846 475.074C1027.54 481.836 1061.36 491.025 1062.89 530.907L1062.89 532.469C1062.89 532.469 1062.89 534.201 1062.89 534.201Z" fill="#ffffff" fill-rule="nonzero" opacity="1" stroke="none"/>
<path d="M1241.56 413.261L1241.56 449.848L1194.15 449.848L1194.15 586.658L1153.7 586.658L1153.7 449.848L1105.95 449.848L1105.95 413.261L1241.56 413.261Z" fill="#ffffff" fill-rule="nonzero" opacity="1" stroke="none"/>
<path d="M1446.39 499.959C1446.39 549.549 1407.13 589.78 1358.54 589.78C1309.93 589.78 1270.51 549.549 1270.51 499.959C1270.51 450.366 1309.93 410.139 1358.54 410.139C1407.13 410.139 1446.39 450.193 1446.39 499.959ZM1405.95 499.784C1405.95 473.081 1384.71 451.407 1358.54 451.407C1332.36 451.407 1311.12 473.081 1311.12 499.784C1311.12 526.489 1332.36 548.163 1358.54 548.163C1384.71 548.163 1405.95 526.489 1405.95 499.784Z" fill="#ffffff" fill-rule="nonzero" opacity="1" stroke="none"/>
<path d="M1654 544.001C1639.04 571.225 1610.32 589.78 1577.36 589.78C1528.75 589.78 1489.33 549.549 1489.33 499.959C1489.33 450.366 1528.75 410.139 1577.36 410.139C1610.32 410.139 1638.87 428.519 1654 455.742L1617.46 473.949C1609.13 460.425 1594.18 451.407 1577.36 451.407C1551.19 451.407 1529.94 473.081 1529.94 499.784C1529.94 526.489 1551.19 548.163 1577.36 548.163C1594.18 548.163 1609.13 539.145 1617.46 525.621L1654 544.001Z" fill="#ffffff" fill-rule="nonzero" opacity="1" stroke="none"/>
<path d="M1842.66 586.654L1793.04 586.654L1746.48 523.885L1737.47 534.809L1737.47 586.654L1697.2 586.654L1697.2 413.259L1737.47 413.259L1737.47 478.802L1788.28 413.259L1838.07 413.259L1770.61 494.58L1842.66 586.654Z" fill="#ffffff" fill-rule="nonzero" opacity="1" stroke="none"/>
<path d="M2022.28 469.091C2022.28 495.794 2006.3 519.204 1977.07 524.058L1942.07 488.339L1960.42 488.339C1972.99 488.339 1981.32 480.536 1981.32 469.091C1981.32 457.474 1973.16 449.845 1960.42 449.845L1925.92 449.845L1925.92 586.654L1885.65 586.654L1885.65 413.259L1965.18 413.259C2002.05 413.259 2022.28 438.748 2022.28 469.091Z" fill="#ffffff" fill-rule="nonzero" opacity="1" stroke="none"/>
<path d="M2065.64 413.259L2105.91 413.259L2105.91 586.654L2065.64 586.654L2065.64 413.259Z" fill="#ffffff" fill-rule="nonzero" opacity="1" stroke="none"/>
<path d="M2257.13 550.067L2257.13 586.654L2149.05 586.654L2149.05 413.259L2189.33 413.259L2189.33 550.067L2257.13 550.067Z" fill="#ffffff" fill-rule="nonzero" opacity="1" stroke="none"/>
<path d="M2300.17 586.654L2420.48 586.654L2420.48 550.067L2300.17 550.067L2300.17 586.654ZM2300.17 519.029L2420.48 519.029L2420.48 482.443L2300.17 482.443L2300.17 519.029ZM2300.17 413.259L2300.17 449.845L2420.48 449.845L2420.48 413.259L2300.17 413.259Z" fill="#ffffff" fill-rule="nonzero" opacity="1" stroke="none"/>
</g>
</g>
</svg>
