<?xml version="1.0" encoding="UTF-8" standalone="no"?>
<!DOCTYPE svg PUBLIC "-//W3C//DTD SVG 1.1//EN" "http://www.w3.org/Graphics/SVG/1.1/DTD/svg11.dtd">
<!-- Created with Vectornator (http://vectornator.io/) -->
<svg height="100%" stroke-miterlimit="10" style="fill-rule:nonzero;clip-rule:evenodd;stroke-linecap:round;stroke-linejoin:round;" version="1.1" viewBox="0 0 2600 1000" width="100%" xml:space="preserve" xmlns="http://www.w3.org/2000/svg" xmlns:vectornator="http://vectornator.io" xmlns:xlink="http://www.w3.org/1999/xlink">
<defs/>
<g id="Layer-1" vectornator:layerName="Layer 1">
<g opacity="1">
<g opacity="1">
<g opacity="1">
<clipPath id="ClipPath">
<path d="M159.669 808.915L809.669 808.915L809.669 158.915L159.669 158.915L159.669 808.915Z"/>
</clipPath>
<g clip-path="url(#ClipPath)">
<path d="M485.956 169.958L590.412 228.873L588.635 340.345L799.449 456.331L799.353 683.397L694.176 740.937L588.426 684.029L379.752 797.924L169.909 683.804L170.417 569.519L274.847 512.235L274.576 285.751L485.956 169.958Z" fill="none" opacity="1" stroke="#004d80" stroke-linecap="butt" stroke-linejoin="miter" stroke-width="22"/>
</g>
</g>
<g opacity="1">
<clipPath id="ClipPath_2">
<path d="M275.173 352.618L597.913 352.618L597.913 220.138L275.173 220.138L275.173 352.618Z"/>
</clipPath>
<g clip-path="url(#ClipPath_2)">
<path d="M592.39 228.583L383.675 341.672L280.609 287.204" fill="none" opacity="1" stroke="#004d80" stroke-linecap="butt" stroke-linejoin="miter" stroke-width="22"/>
</g>
</g>
<g opacity="1">
<clipPath id="ClipPath_3">
<path d="M685.043 745.334L804.73 745.334L804.73 448.146L685.043 448.146L685.043 745.334Z"/>
</clipPath>
<g clip-path="url(#ClipPath_3)">
<path d="M799.271 456.626L695.276 511.962L695.928 744.509" fill="none" opacity="1" stroke="#004d80" stroke-linecap="butt" stroke-linejoin="miter" stroke-width="22"/>
</g>
</g>
<g opacity="1">
<clipPath id="ClipPath_4">
<path d="M374.34 337.519L593.696 335.54L595.01 464.579L375.653 466.559L374.34 337.519Z"/>
</clipPath>
<g clip-path="url(#ClipPath_4)">
<clipPath id="ClipPath_5">
<path d="M-333.245 916.887L1301.59 916.887L1301.59 50.9956L-333.245 50.9956L-333.245 916.887Z"/>
</clipPath>
<g clip-path="url(#ClipPath_5)">
<path d="M588.284 344.048L381.065 458.051" fill="none" opacity="1" stroke="#004d80" stroke-linecap="butt" stroke-linejoin="miter" stroke-width="22"/>
</g>
</g>
</g>
<g opacity="1">
<clipPath id="ClipPath_6">
<path d="M483.678 392.191L704.638 392.358L704.527 523.088L483.566 522.92L483.678 392.191Z"/>
</clipPath>
<g clip-path="url(#ClipPath_6)">
<clipPath id="ClipPath_7">
<path d="M-333.245 916.887L1301.59 916.887L1301.59 50.9956L-333.245 50.9956L-333.245 916.887Z"/>
</clipPath>
<g clip-path="url(#ClipPath_7)">
<path d="M699.008 514.64L489.197 400.639" fill="none" opacity="1" stroke="#004d80" stroke-linecap="butt" stroke-linejoin="miter" stroke-width="22"/>
</g>
</g>
</g>
<g opacity="1">
<clipPath id="ClipPath_8">
<path d="M579.488 683.983L601.102 683.983L601.102 458.071L579.488 458.071L579.488 683.983Z"/>
</clipPath>
<g clip-path="url(#ClipPath_8)">
<path d="M590.885 458.916L589.705 683.138" fill="none" opacity="1" stroke="#004d80" stroke-linecap="butt" stroke-linejoin="miter" stroke-width="22"/>
</g>
</g>
<g opacity="1">
<clipPath id="ClipPath_9">
<path d="M368.862 567.184L389.297 567.184L389.297 340.439L368.862 340.439L368.862 567.184Z"/>
</clipPath>
<g clip-path="url(#ClipPath_9)">
<path d="M379.08 566.382L379.08 341.241" fill="none" opacity="1" stroke="#004d80" stroke-linecap="butt" stroke-linejoin="miter" stroke-width="22"/>
</g>
</g>
<g opacity="1">
<clipPath id="ClipPath_10">
<path d="M368.862 796.526L389.298 796.526L389.298 682.352L368.862 682.352L368.862 796.526Z"/>
</clipPath>
<g clip-path="url(#ClipPath_10)">
<path d="M379.08 795.724L379.08 683.154" fill="none" opacity="1" stroke="#004d80" stroke-linecap="butt" stroke-linejoin="miter" stroke-width="22"/>
</g>
</g>
<g opacity="1">
<clipPath id="ClipPath_11">
<path d="M371.447 677.296L583.832 560.459L594.141 577.074L381.756 693.91L371.447 677.296Z"/>
</clipPath>
<g clip-path="url(#ClipPath_11)">
<clipPath id="ClipPath_12">
<path d="M-333.245 916.887L1301.59 916.887L1301.59 50.9956L-333.245 50.9956L-333.245 916.887Z"/>
</clipPath>
<g clip-path="url(#ClipPath_12)">
<path d="M377.337 685.198L588.251 569.171" fill="none" opacity="1" stroke="#004d80" stroke-linecap="butt" stroke-linejoin="miter" stroke-width="22"/>
</g>
</g>
</g>
<g opacity="1">
<clipPath id="ClipPath_13">
<path d="M173.291 559.946L383.219 674.776L372.953 691.414L163.026 576.585L173.291 559.946Z"/>
</clipPath>
<g clip-path="url(#ClipPath_13)">
<clipPath id="ClipPath_14">
<path d="M-333.245 916.887L1301.59 916.887L1301.59 50.9956L-333.245 50.9956L-333.245 916.887Z"/>
</clipPath>
<g clip-path="url(#ClipPath_14)">
<path d="M168.895 568.668L377.35 682.692" fill="none" opacity="1" stroke="#004d80" stroke-linecap="butt" stroke-linejoin="miter" stroke-width="22"/>
</g>
</g>
</g>
<g opacity="1">
<clipPath id="ClipPath_15">
<path d="M264.529 500.129L488.766 621.861L478.003 639.369L253.766 517.637L264.529 500.129Z"/>
</clipPath>
<g clip-path="url(#ClipPath_15)">
<clipPath id="ClipPath_16">
<path d="M-376.72 938.064L1344.58 938.064L1344.58 28.1731L-376.72 28.1731L-376.72 938.064Z"/>
</clipPath>
<g clip-path="url(#ClipPath_16)">
<path d="M259.923 509.304L482.608 630.193" fill="none" opacity="1" stroke="#004d80" stroke-linecap="butt" stroke-linejoin="miter" stroke-width="22"/>
</g>
</g>
</g>
<g opacity="1">
<clipPath id="ClipPath_17">
<path d="M372.934 445.799L494.156 445.427L494.421 522.064L373.199 522.436L372.934 445.799Z"/>
</clipPath>
<g clip-path="url(#ClipPath_17)">
<clipPath id="ClipPath_18">
<path d="M-333.245 916.887L1301.59 916.887L1301.59 50.9956L-333.245 50.9956L-333.245 916.887Z"/>
</clipPath>
<g clip-path="url(#ClipPath_18)">
<path d="M488.865 513.637L378.49 454.226" fill="none" opacity="1" stroke="#004d80" stroke-linecap="butt" stroke-linejoin="miter" stroke-width="22"/>
</g>
</g>
</g>
<g opacity="1">
<clipPath id="ClipPath_19">
<path d="M483.619 443.863L603.606 448.443L600.352 524L480.366 519.42L483.619 443.863Z"/>
</clipPath>
<g clip-path="url(#ClipPath_19)">
<clipPath id="ClipPath_20">
<path d="M-333.245 916.887L1301.59 916.887L1301.59 50.9956L-333.245 50.9956L-333.245 916.887Z"/>
</clipPath>
<g clip-path="url(#ClipPath_20)">
<path d="M597.747 456.685L486.224 511.178" fill="none" opacity="1" stroke="#004d80" stroke-linecap="butt" stroke-linejoin="miter" stroke-width="22"/>
</g>
</g>
</g>
<g opacity="1">
<clipPath id="ClipPath_21">
<path d="M474.457 627.986L494.893 627.986L494.893 509.13L474.457 509.13L474.457 627.986Z"/>
</clipPath>
<g clip-path="url(#ClipPath_21)">
<path d="M484.675 627.185L484.675 509.932" fill="none" opacity="1" stroke="#004d80" stroke-linecap="butt" stroke-linejoin="miter" stroke-width="22"/>
</g>
</g>
</g>
</g>
<g opacity="1">
<path d="M1062.89 535.477C1062.89 568.394 1040.8 593.213 994.916 593.213C962.288 593.213 939.516 581.343 920.483 561.017L942.237 528.642L945.635 532.422C953.452 541.053 970.447 555.444 996.786 555.444C1014.46 555.444 1022.28 547.53 1022.28 539.795C1022.28 530.263 1007.32 526.483 989.99 522.169C962.969 515.334 930.001 506.161 928.471 465.15L928.471 463.533L928.471 461.914L928.471 460.295C929.321 430.977 953.621 407.054 992.876 407.054C1019.9 407.054 1043.35 415.688 1062.21 434.934L1039.44 466.59L1036.21 463.352C1024.15 451.661 1007.15 444.826 989.478 444.826C976.905 444.826 969.427 449.863 969.427 458.496C969.427 466.409 983.532 470.008 999.846 474.144C1027.54 481.159 1061.36 490.69 1062.89 532.059L1062.89 533.68C1062.89 533.68 1062.89 535.477 1062.89 535.477Z" fill="#004d80" fill-rule="nonzero" opacity="1" stroke="none"/>
<path d="M1241.56 410.025L1241.56 447.977L1194.15 447.977L1194.15 589.891L1153.7 589.891L1153.7 447.977L1105.95 447.977L1105.95 410.025L1241.56 410.025Z" fill="#004d80" fill-rule="nonzero" opacity="1" stroke="none"/>
<path d="M1446.39 499.957C1446.39 551.398 1407.13 593.129 1358.54 593.129C1309.93 593.129 1270.51 551.398 1270.51 499.957C1270.51 448.515 1309.93 406.787 1358.54 406.787C1407.13 406.787 1446.39 448.335 1446.39 499.957ZM1405.95 499.776C1405.95 472.077 1384.71 449.594 1358.54 449.594C1332.36 449.594 1311.12 472.077 1311.12 499.776C1311.12 527.477 1332.36 549.96 1358.54 549.96C1384.71 549.96 1405.95 527.477 1405.95 499.776Z" fill="#004d80" fill-rule="nonzero" opacity="1" stroke="none"/>
<path d="M1654 545.642C1639.04 573.882 1610.32 593.129 1577.36 593.129C1528.75 593.129 1489.33 551.398 1489.33 499.957C1489.33 448.515 1528.75 406.787 1577.36 406.787C1610.32 406.787 1638.87 425.852 1654 454.091L1617.46 472.977C1609.13 458.948 1594.18 449.594 1577.36 449.594C1551.19 449.594 1529.94 472.077 1529.94 499.776C1529.94 527.477 1551.19 549.96 1577.36 549.96C1594.18 549.96 1609.13 540.605 1617.46 526.577L1654 545.642Z" fill="#004d80" fill-rule="nonzero" opacity="1" stroke="none"/>
<path d="M1842.66 589.886L1793.04 589.886L1746.48 524.776L1737.47 536.108L1737.47 589.886L1697.2 589.886L1697.2 410.023L1737.47 410.023L1737.47 478.011L1788.28 410.023L1838.07 410.023L1770.61 494.378L1842.66 589.886Z" fill="#004d80" fill-rule="nonzero" opacity="1" stroke="none"/>
<path d="M2022.28 467.938C2022.28 495.637 2006.3 519.92 1977.07 524.955L1942.07 487.904L1960.42 487.904C1972.99 487.904 1981.32 479.81 1981.32 467.938C1981.32 455.887 1973.16 447.974 1960.42 447.974L1925.92 447.974L1925.92 589.886L1885.65 589.886L1885.65 410.023L1965.18 410.023C2002.05 410.023 2022.28 436.463 2022.28 467.938Z" fill="#004d80" fill-rule="nonzero" opacity="1" stroke="none"/>
<path d="M2065.64 410.023L2105.91 410.023L2105.91 589.886L2065.64 589.886L2065.64 410.023Z" fill="#004d80" fill-rule="nonzero" opacity="1" stroke="none"/>
<path d="M2257.13 551.935L2257.13 589.886L2149.05 589.886L2149.05 410.023L2189.33 410.023L2189.33 551.935L2257.13 551.935Z" fill="#004d80" fill-rule="nonzero" opacity="1" stroke="none"/>
<path d="M2300.17 589.886L2420.48 589.886L2420.48 551.935L2300.17 551.935L2300.17 589.886ZM2300.17 519.739L2420.48 519.739L2420.48 481.788L2300.17 481.788L2300.17 519.739ZM2300.17 410.023L2300.17 447.974L2420.48 447.974L2420.48 410.023L2300.17 410.023Z" fill="#004d80" fill-rule="nonzero" opacity="1" stroke="none"/>
</g>
</g>
</svg>
