<?xml version="1.0" encoding="UTF-8" standalone="no"?>
<!DOCTYPE svg PUBLIC "-//W3C//DTD SVG 1.1//EN" "http://www.w3.org/Graphics/SVG/1.1/DTD/svg11.dtd">
<!-- Created with Vectornator (http://vectornator.io/) -->
<svg height="100%" stroke-miterlimit="10" style="fill-rule:nonzero;clip-rule:evenodd;stroke-linecap:round;stroke-linejoin:round;" version="1.1" viewBox="0 0 4300 1000" width="100%" xml:space="preserve" xmlns="http://www.w3.org/2000/svg" xmlns:vectornator="http://vectornator.io" xmlns:xlink="http://www.w3.org/1999/xlink">
<defs/>
<g id="Layer-1" vectornator:layerName="Layer 1">
<g opacity="1">
<g opacity="1">
<path d="M348.868 185.461L453.325 244.377L451.547 355.849L662.362 471.835L662.267 698.904L557.089 756.443L451.339 699.535L242.663 813.431L32.8188 699.311L33.3268 585.025L137.758 527.74L137.487 301.255L348.868 185.461Z" fill="none" opacity="1" stroke="#ffffff" stroke-linecap="butt" stroke-linejoin="miter" stroke-width="22"/>
</g>
<g opacity="1">
<path d="M455.303 244.087L246.586 357.176L143.519 302.708" fill="none" opacity="1" stroke="#ffffff" stroke-linecap="butt" stroke-linejoin="miter" stroke-width="22"/>
</g>
<g opacity="1">
<path d="M662.184 472.131L558.189 527.467L558.841 760.016" fill="none" opacity="1" stroke="#ffffff" stroke-linecap="butt" stroke-linejoin="miter" stroke-width="22"/>
</g>
<g opacity="1">
<path d="M451.197 359.552L243.976 473.555" fill="none" opacity="1" stroke="#ffffff" stroke-linecap="butt" stroke-linejoin="miter" stroke-width="22"/>
</g>
<g opacity="1">
<path d="M561.921 530.145L352.109 416.143" fill="none" opacity="1" stroke="#ffffff" stroke-linecap="butt" stroke-linejoin="miter" stroke-width="22"/>
</g>
<g opacity="1">
<path d="M453.797 474.421L452.618 698.644" fill="none" opacity="1" stroke="#ffffff" stroke-linecap="butt" stroke-linejoin="miter" stroke-width="22"/>
</g>
<g opacity="1">
<path d="M241.991 581.888L241.991 356.745" fill="none" opacity="1" stroke="#ffffff" stroke-linecap="butt" stroke-linejoin="miter" stroke-width="22"/>
</g>
<g opacity="1">
<path d="M241.991 811.231L241.991 698.66" fill="none" opacity="1" stroke="#ffffff" stroke-linecap="butt" stroke-linejoin="miter" stroke-width="22"/>
</g>
<g opacity="1">
<path d="M240.248 700.705L451.164 584.677" fill="none" opacity="1" stroke="#ffffff" stroke-linecap="butt" stroke-linejoin="miter" stroke-width="22"/>
</g>
<g opacity="1">
<path d="M31.8048 584.174L240.261 698.199" fill="none" opacity="1" stroke="#ffffff" stroke-linecap="butt" stroke-linejoin="miter" stroke-width="22"/>
</g>
<g opacity="1">
<path d="M122.834 524.809L345.52 645.699" fill="none" opacity="1" stroke="#ffffff" stroke-linecap="butt" stroke-linejoin="miter" stroke-width="22"/>
</g>
<g opacity="1">
<path d="M351.777 529.142L241.401 469.731" fill="none" opacity="1" stroke="#ffffff" stroke-linecap="butt" stroke-linejoin="miter" stroke-width="22"/>
</g>
<g opacity="1">
<path d="M460.66 472.19L349.135 526.683" fill="none" opacity="1" stroke="#ffffff" stroke-linecap="butt" stroke-linejoin="miter" stroke-width="22"/>
</g>
<g opacity="1">
<path d="M347.587 642.691L347.587 525.437" fill="none" opacity="1" stroke="#ffffff" stroke-linecap="butt" stroke-linejoin="miter" stroke-width="22"/>
</g>
</g>
<g opacity="1">
<path d="M1246.65 590.806C1246.65 661.433 1197.48 714.686 1095.36 714.686C1022.74 714.686 972.058 689.217 929.696 645.606L978.113 576.141L985.677 584.251C1003.07 602.771 1040.9 633.649 1099.52 633.649C1138.86 633.649 1156.25 616.667 1156.25 600.07C1156.25 579.618 1122.97 571.509 1084.39 562.252C1024.26 547.587 950.879 527.905 947.474 439.912L947.474 436.441L947.474 432.967L947.474 429.493C949.367 366.588 1003.45 315.259 1090.82 315.259C1150.96 315.259 1203.16 333.783 1245.14 375.079L1194.45 443.001L1187.27 436.053C1160.42 410.969 1122.59 396.304 1083.26 396.304C1055.27 396.304 1038.63 407.11 1038.63 425.635C1038.63 442.612 1070.02 450.334 1106.33 459.209C1167.98 474.259 1243.24 494.711 1246.65 583.473L1246.65 586.951C1246.65 586.951 1246.65 590.806 1246.65 590.806Z" fill="#ffffff" fill-rule="nonzero" opacity="1" stroke="none"/>
<path d="M1644.3 321.634L1644.3 403.063L1538.78 403.063L1538.78 707.557L1448.76 707.557L1448.76 403.063L1342.48 403.063L1342.48 321.634L1644.3 321.634Z" fill="#ffffff" fill-rule="nonzero" opacity="1" stroke="none"/>
<path d="M2100.19 514.594C2100.19 624.966 2012.82 714.505 1904.65 714.505C1796.48 714.505 1708.73 624.966 1708.73 514.594C1708.73 404.218 1796.48 314.686 1904.65 314.686C2012.82 314.686 2100.19 403.833 2100.19 514.594ZM2010.17 514.205C2010.17 454.774 1962.9 406.534 1904.65 406.534C1846.41 406.534 1799.13 454.774 1799.13 514.205C1799.13 573.64 1846.41 621.88 1904.65 621.88C1962.9 621.88 2010.17 573.64 2010.17 514.205Z" fill="#ffffff" fill-rule="nonzero" opacity="1" stroke="none"/>
<path d="M2562.25 612.616C2528.97 673.21 2465.05 714.505 2391.68 714.505C2283.5 714.505 2195.76 624.966 2195.76 514.594C2195.76 404.218 2283.5 314.686 2391.68 314.686C2465.05 314.686 2528.59 355.593 2562.25 416.182L2480.94 456.705C2462.4 426.604 2429.12 406.534 2391.68 406.534C2333.43 406.534 2286.15 454.774 2286.15 514.205C2286.15 573.64 2333.43 621.88 2391.68 621.88C2429.12 621.88 2462.4 601.809 2480.94 571.709L2562.25 612.616Z" fill="#ffffff" fill-rule="nonzero" opacity="1" stroke="none"/>
<path d="M2982.16 707.548L2871.72 707.548L2768.08 567.845L2748.04 592.159L2748.04 707.548L2658.4 707.548L2658.4 321.629L2748.04 321.629L2748.04 467.507L2861.12 321.629L2971.95 321.629L2821.79 502.624L2982.16 707.548Z" fill="#ffffff" fill-rule="nonzero" opacity="1" stroke="none"/>
<path d="M3381.92 445.893C3381.92 505.324 3346.37 557.427 3281.31 568.23L3203.4 488.732L3244.24 488.732C3272.23 488.732 3290.77 471.365 3290.77 445.893C3290.77 420.036 3272.61 403.058 3244.24 403.058L3167.47 403.058L3167.47 707.548L3077.83 707.548L3077.83 321.629L3254.84 321.629C3336.91 321.629 3381.92 378.359 3381.92 445.893Z" fill="#ffffff" fill-rule="nonzero" opacity="1" stroke="none"/>
<path d="M3478.43 321.629L3568.07 321.629L3568.07 707.548L3478.43 707.548L3478.43 321.629Z" fill="#ffffff" fill-rule="nonzero" opacity="1" stroke="none"/>
<path d="M3904.63 626.119L3904.63 707.548L3664.08 707.548L3664.08 321.629L3753.72 321.629L3753.72 626.119L3904.63 626.119Z" fill="#ffffff" fill-rule="nonzero" opacity="1" stroke="none"/>
<path d="M4000.42 707.548L4268.2 707.548L4268.2 626.119L4000.42 626.119L4000.42 707.548ZM4000.42 557.038L4268.2 557.038L4268.2 475.609L4000.42 475.609L4000.42 557.038ZM4000.42 321.629L4000.42 403.058L4268.2 403.058L4268.2 321.629L4000.42 321.629Z" fill="#ffffff" fill-rule="nonzero" opacity="1" stroke="none"/>
</g>
</g>
</svg>
